<?xml version="1.0" encoding="UTF-8"?>
<svg version="1.1" xmlns="http://www.w3.org/2000/svg" width="700" height="340">
<path d="M0 0 C1.25565403 1.09535777 2.48415138 2.22242558 3.6875 3.375 C4.40164063 4.00148438 5.11578125 4.62796875 5.8515625 5.2734375 C20.62852312 18.93323958 29.61687904 39.82243735 36.875 58.25 C39.61384303 64.88426494 43.70610493 69.30931737 48.6875 74.375 C59.64493964 86.14410184 61.83167229 99.36005064 61.85546875 114.93359375 C61.85879715 115.7216188 61.86212555 116.50964386 61.86555481 117.32154846 C61.87058206 118.98120549 61.87296445 120.64087248 61.87280273 122.30053711 C61.87496756 124.77540874 61.89310858 127.24981753 61.91210938 129.72460938 C61.94238702 138.6252378 61.48722195 147.28104142 60.39562988 156.11479187 C59.13470152 166.50147972 59.69298433 176.71640422 60.5 187.125 C60.57025391 188.19621094 60.64050781 189.26742187 60.71289062 190.37109375 C61.44573574 199.90394299 64.45722399 207.09909624 68.6015625 215.6640625 C73.26890311 227.31562504 71.63247078 243.81452041 67.6875 255.375 C65.14821841 260.64889253 61.25916399 263.48331618 56.61328125 266.859375 C54.57730376 268.24016116 54.57730376 268.24016116 53.6875 270.375 C53.57130365 271.73122367 53.50893439 273.09231778 53.4765625 274.453125 C52.55173662 303.66791774 52.55173662 303.66791774 44.6875 313.375 C36.95297113 320.27870991 24.79713058 319.66608048 15.11621094 319.61791992 C13.89853531 319.61981827 12.68085968 319.62171661 11.42628479 319.62367249 C8.11396441 319.62672393 4.8018979 319.62091511 1.48960781 319.61071944 C-1.99917478 319.60186021 -5.48795406 319.60369797 -8.97674561 319.6040802 C-14.83722179 319.60314639 -20.69764592 319.59450421 -26.55810547 319.58081055 C-33.29837871 319.56511755 -40.03859492 319.55981166 -46.77888513 319.5605461 C-53.99917377 319.56122616 -61.21944092 319.55425678 -68.43972301 319.5450995 C-70.49916607 319.54298564 -72.55860558 319.5422607 -74.61804962 319.54186058 C-78.48659715 319.5406522 -82.35509919 319.53087285 -86.22363281 319.52026367 C-87.34513229 319.52071686 -88.46663177 319.52117004 -89.62211609 319.52163696 C-96.48609098 319.49436383 -103.27619859 319.15565574 -110.11811447 318.60161304 C-115.18392571 318.24223911 -120.23619493 318.22988254 -125.3125 318.25 C-126.25738281 318.24613281 -127.20226562 318.24226563 -128.17578125 318.23828125 C-134.00897952 318.24584701 -139.81126173 318.43407738 -145.63592899 318.73112166 C-157.89656344 319.34997685 -170.13140387 319.54988622 -182.40576172 319.59619141 C-184.51469619 319.60744971 -186.62362868 319.61908353 -188.7325592 319.63105774 C-194.39230044 319.66199656 -200.052053 319.68733632 -205.71182775 319.7112546 C-210.47429907 319.73190503 -215.23675499 319.75536644 -219.99921334 319.77879179 C-231.259876 319.8341285 -242.52055276 319.88487611 -253.78125 319.93261719 C-265.30658343 319.98155357 -276.83186324 320.03791249 -288.35714328 320.09803832 C-298.33081048 320.14981896 -308.30449244 320.19703664 -318.27819836 320.24072587 C-324.20003709 320.26669871 -330.12185672 320.29421583 -336.04366684 320.3260994 C-378.55955401 320.55146239 -378.55955401 320.55146239 -397.89111328 319.94287109 C-399.1498419 319.90332621 -400.40857052 319.86378132 -401.70544243 319.8230381 C-407.95763946 319.5929687 -414.10328151 319.13592088 -420.3125 318.375 C-422.2903506 318.29167048 -424.27040257 318.24444713 -426.25 318.25 C-427.62478516 318.24613281 -427.62478516 318.24613281 -429.02734375 318.2421875 C-431.64857071 318.34815863 -434.16431989 318.5742338 -436.76554871 318.87322998 C-442.63273527 319.46810607 -448.45555943 319.5300049 -454.34887695 319.53613281 C-455.50963745 319.54109772 -456.67039795 319.54606262 -457.86633301 319.55117798 C-461.67782194 319.56569386 -465.4892693 319.57258304 -469.30078125 319.578125 C-471.29307361 319.58242647 -473.28536596 319.58672851 -475.27765816 319.5910995 C-480.8236778 319.60286986 -486.36968753 319.61043375 -491.91571838 319.6138947 C-499.04812536 319.61837259 -506.18034044 319.63592408 -513.31268913 319.6648953 C-518.85615172 319.68661809 -524.39956071 319.69660452 -529.94306535 319.69793582 C-533.24044756 319.69897588 -536.5376091 319.70619737 -539.83495522 319.72275543 C-543.51942875 319.73994088 -547.20344136 319.73790532 -550.88793945 319.73144531 C-552.49142494 319.74526749 -552.49142494 319.74526749 -554.12730408 319.7593689 C-564.74394762 319.70148943 -575.899069 318.37230895 -584.3125 311.375 C-594.4380475 300.97578905 -593.60149265 285.5304873 -593.48046875 272.01171875 C-593.39002422 268.06994493 -592.94802765 264.27001418 -592.3125 260.375 C-591.19663119 252.18254543 -594.19653652 247.30098669 -598.3125 240.375 C-611.11301522 217.22396064 -611.67540174 193.63340836 -611.62817383 167.75683594 C-611.62354694 165.00927338 -611.63045972 162.26215395 -611.64868164 159.51464844 C-611.84278314 129.96109115 -611.38060407 98.2950383 -589.55859375 75.58984375 C-588.81738281 74.85894531 -588.07617188 74.12804687 -587.3125 73.375 C-586.66410156 72.71628906 -586.01570312 72.05757813 -585.34765625 71.37890625 C-571.10844788 57.83855474 -550.7848515 57.21600087 -532.2734375 57.20703125 C-530.70415213 57.20381078 -529.13486705 57.20044614 -527.56558228 57.19694519 C-524.28248399 57.19097733 -520.99941192 57.18910276 -517.71630859 57.18969727 C-513.54771655 57.18979849 -509.37929635 57.17617694 -505.21074486 57.15892506 C-501.96928159 57.14770073 -498.72785841 57.14578126 -495.48637772 57.14630699 C-493.95168087 57.14514134 -492.41698248 57.14080104 -490.88230515 57.13297462 C-482.18284926 57.09277767 -473.81135485 57.504355 -465.21035767 58.91966248 C-461.52022748 59.499489 -458.04745196 59.64109893 -454.3125 59.625 C-452.518125 59.63273437 -452.518125 59.63273437 -450.6875 59.640625 C-447.15103047 59.51983236 -443.76884884 58.96463996 -440.28125 58.37890625 C-430.8639621 56.9771058 -421.4497127 57.03920449 -411.94482422 57.05932617 C-408.81833238 57.06249409 -405.69278241 57.03892017 -402.56640625 57.01367188 C-389.82385638 56.97332013 -378.26636947 57.5048572 -366.3125 62.375 C-359.63964447 63.4958312 -353.70103021 61.48537842 -347.42578125 59.34765625 C-341.72114938 57.56540614 -336.23386779 57.22869519 -330.29136658 57.24128723 C-329.50068065 57.23902167 -328.70999472 57.23675612 -327.89534861 57.23442191 C-325.25435478 57.22810848 -322.61341263 57.22890961 -319.97241211 57.22973633 C-318.07458938 57.22674289 -316.17676725 57.22333993 -314.27894592 57.21955872 C-309.12515974 57.2107261 -303.97139017 57.20838071 -298.81759715 57.20774293 C-295.58948708 57.20703117 -292.3613812 57.2048943 -289.13327217 57.20224571 C-277.84657652 57.1929896 -266.55989268 57.18891052 -255.27319336 57.18969727 C-244.79658566 57.19029578 -234.32002983 57.1797893 -223.84343523 57.1639536 C-214.82055292 57.15080752 -205.79768739 57.14551643 -196.77479559 57.14615268 C-191.39912536 57.14640591 -186.02350109 57.1436532 -180.6478405 57.13297462 C-175.57609322 57.12317595 -170.50443465 57.12329361 -165.43268394 57.13049126 C-163.58867002 57.13152318 -161.74465024 57.12925904 -159.90064621 57.1231308 C-145.73600277 57.07917416 -131.83910985 58.14943673 -117.77427578 59.78693867 C-113.77760785 60.20264742 -111.38332501 60.1471635 -108.06811523 57.7565918 C-107.30184814 57.03640869 -106.53558105 56.31622559 -105.74609375 55.57421875 C-104.87364014 54.75638916 -104.00118652 53.93855957 -103.10229492 53.09594727 C-98.70797774 48.81007477 -94.3939111 44.45024379 -90.0987854 40.06561279 C-82.15571937 31.97091516 -74.26359315 24.15125547 -65.01953125 17.5234375 C-60.05012348 13.57946308 -56.57791333 8.45504499 -52.9375 3.3046875 C-42.05322775 -9.6203858 -13.20633317 -9.39581016 0 0 Z M-37.3125 120.375 C-41.16398093 125.00079955 -41.48752738 130.87651481 -42.375 136.625 C-42.69717981 138.63053694 -43.02137293 140.63575157 -43.34765625 142.640625 C-43.58270874 144.09154541 -43.58270874 144.09154541 -43.82250977 145.57177734 C-44.40271218 148.89110175 -45.11946502 152.16365409 -45.90039062 155.44091797 C-46.56720335 158.57035541 -46.75615057 161.20606738 -46.3125 164.375 C-44.06174217 166.40068205 -41.80059767 167.20526221 -38.96484375 168.19140625 C-29.54430098 171.58734852 -25.66694702 176.76811071 -21.40625 185.671875 C-19.89454896 189.40793613 -18.89635084 193.20303071 -17.98828125 197.125 C-17.453766 199.54961357 -17.453766 199.54961357 -15.3125 201.375 C-11.72906024 201.54177282 -11.72906024 201.54177282 -8.3125 201.375 C-6.2491939 197.24838781 -6.60262148 192.04489913 -6.25 187.5 C-6.15912109 186.4171875 -6.06824219 185.334375 -5.97460938 184.21875 C-5.11721143 173.41424652 -4.70423932 163.12977202 -7.0625 152.5 C-7.21976563 151.69820312 -7.37703125 150.89640625 -7.5390625 150.0703125 C-10.16645414 137.78220391 -19.44177402 131.23328137 -29.25 124.375 C-29.81775146 123.97692139 -30.38550293 123.57884277 -30.97045898 123.16870117 C-33.87643983 121.02877395 -33.87643983 121.02877395 -37.3125 120.375 Z " fill="#242021" transform="translate(618.3125,14.625)"/>
<path d="M0 0 C5.74759859 0.05754792 8.40901317 1.70576541 12.28857422 5.60693359 C12.87396973 6.23164551 13.45936523 6.85635742 14.0625 7.5 C14.67883301 8.14146973 15.29516602 8.78293945 15.93017578 9.44384766 C23.97274818 17.95812518 28.86434777 27.40393464 33.95019531 37.86083984 C34.99817839 39.99628816 36.06878359 42.11868821 37.1484375 44.23828125 C46.4272593 62.47346177 46.4272593 62.47346177 47.34765625 68.140625 C47.83553588 70.16006851 47.83553588 70.16006851 49.796875 71.09375 C50.52390625 71.3928125 51.2509375 71.691875 52 72 C53.42831735 72.81320258 54.84524447 73.64674108 56.25 74.5 C56.95640625 74.9228125 57.6628125 75.345625 58.390625 75.78125 C58.92171875 76.1834375 59.4528125 76.585625 60 77 C60 77.66 60 78.32 60 79 C60.99 79.33 61.98 79.66 63 80 C67.56528337 86.77967332 65.00802728 98.32156999 64 106 C63.69063033 107.33909645 63.36577993 108.67520042 63 110 C63.99 110.33 64.98 110.66 66 111 C66 112.98 66 114.96 66 117 C65.34 117 64.68 117 64 117 C64.33 117.99 64.66 118.98 65 120 C65.07029121 122.57265818 65.09370832 125.11641431 65.0625 127.6875 C65.05798828 128.38939453 65.05347656 129.09128906 65.04882812 129.81445312 C65.03706927 131.54300538 65.01913454 133.27151365 65 135 C63.68 135 62.36 135 61 135 C60.09389069 138.3366771 60.09389069 138.3366771 60.5 141.6875 C61.2301415 145.06440443 60.84308089 148.33787836 60.5625 151.75 C60.51029297 152.44738281 60.45808594 153.14476562 60.40429688 153.86328125 C60.27525928 155.57596203 60.13840386 157.28805066 60 159 C60.66 159.33 61.32 159.66 62 160 C61.34 160 60.68 160 60 160 C60.72268235 163.2985139 60.72268235 163.2985139 64.0625 164.6875 C65.031875 165.120625 66.00125 165.55375 67 166 C66.67 166.99 66.34 167.98 66 169 C64.02 169.33 62.04 169.66 60 170 C60.03955898 171.92309422 60.03955898 171.92309422 61 174 C63.98352894 175.78379415 63.98352894 175.78379415 67 177 C66.67 177.99 66.34 178.98 66 180 C64.02 180.33 62.04 180.66 60 181 C60 182.32 60 183.64 60 185 C61.98 185.66 63.96 186.32 66 187 C66 187.99 66 188.98 66 190 C64.02 190.33 62.04 190.66 60 191 C60.03093173 193.41585574 60.03093173 193.41585574 61 196 C63.96707046 197.85916824 63.96707046 197.85916824 67 199 C65.75 200.5 65.75 200.5 64 202 C62.68 202 61.36 202 60 202 C60 203.65 60 205.3 60 207 C62.64 207.66 65.28 208.32 68 209 C68 209.66 68 210.32 68 211 C71.3 211 74.6 211 78 211 C76.02 216.28 74.04 221.56 72 227 C23.0078722 227.2106056 -25.97716884 226.62534554 -74.96586061 226.10923576 C-86.66688385 225.98607593 -98.36793996 225.86618157 -110.06899905 225.74648476 C-134.046036 225.50114068 -158.02303147 225.25193619 -182 225 C-182.67057887 223.2097939 -183.3363469 221.41778511 -184 219.625 C-184.37125 218.62726563 -184.7425 217.62953125 -185.125 216.6015625 C-186 214 -186 214 -186 212 C-181.71 211.67 -177.42 211.34 -173 211 C-173.825 210.21625 -174.65 209.4325 -175.5 208.625 C-178.46497148 205.05009153 -178.72486758 201.95329229 -178.4921875 197.40234375 C-177.50771888 192.59719931 -174.46860574 190.29582859 -170.875 187.125 C-169 186 -169 186 -166 186 C-166 185.34 -166 184.68 -166 184 C-161.71 183.67 -157.42 183.34 -153 183 C-153.33 181.02 -153.66 179.04 -154 177 C-153.67 176.34 -153.34 175.68 -153 175 C-154.1446875 174.8453125 -154.1446875 174.8453125 -155.3125 174.6875 C-158 174 -158 174 -159.31965637 172.48405457 C-161.70944509 170.37342862 -163.41680933 170.60246347 -166.57299805 170.56762695 C-168.28443245 170.53793571 -168.28443245 170.53793571 -170.03044128 170.50764465 C-171.26176285 170.50125473 -172.49308441 170.49486481 -173.76171875 170.48828125 C-175.02264847 170.47033005 -176.28357819 170.45237885 -177.5827179 170.43388367 C-180.93155514 170.38884576 -184.2800242 170.35657259 -187.62902832 170.33044434 C-191.04774192 170.30064235 -194.46622787 170.25427241 -197.88476562 170.20898438 C-204.58986249 170.121376 -211.29440751 170.06144145 -218 170 C-218 154.49 -218 138.98 -218 123 C-192.26 123 -166.52 123 -140 123 C-140 120.69 -140 118.38 -140 116 C-138.68 116 -137.36 116 -136 116 C-136 114.68 -136 113.36 -136 112 C-163.06 112 -190.12 112 -218 112 C-218 96.82 -218 81.64 -218 66 C-193.67623541 65.91978238 -193.67623541 65.91978238 -183.171875 65.90234375 C-176.05172684 65.8904666 -168.93163094 65.87653795 -161.81152344 65.84912109 C-156.06023721 65.82711795 -150.30900716 65.81537456 -144.55768204 65.81024551 C-142.3820622 65.80659836 -140.20644484 65.79947946 -138.03084946 65.78853989 C-126.84767455 65.73463135 -115.75741748 65.92939559 -104.60986328 66.88720703 C-103.67061949 66.96491774 -102.73137569 67.04262844 -101.76366997 67.12269402 C-100.90298975 67.2056428 -100.04230953 67.28859158 -99.1555481 67.37405396 C-98.02018207 67.48216243 -98.02018207 67.48216243 -96.86187935 67.59245491 C-95 68 -95 68 -93 70 C-93.33 70.33 -93.66 70.66 -94 71 C-90.06036945 75.55519783 -86.73071096 77.15451681 -81 79 C-81.33 79.66 -81.66 80.32 -82 81 C-85.0625 81.625 -85.0625 81.625 -88 82 C-88.07955483 92.11561719 -87.82938884 102.20424185 -87.5 112.3125 C-87.45163644 113.84309308 -87.40345828 115.37369202 -87.35546875 116.90429688 C-87.23910907 120.60293448 -87.12026644 124.30148712 -87 128 C-84.69 128 -82.38 128 -80 128 C-80.66 128.66 -81.32 129.32 -82 130 C-83.65 130 -85.3 130 -87 130 C-87 135.61 -87 141.22 -87 147 C-82.71 146.01 -78.42 145.02 -74 144 C-74.01160156 142.83082031 -74.02320313 141.66164062 -74.03515625 140.45703125 C-74.04453913 138.90885577 -74.0536388 137.36067855 -74.0625 135.8125 C-74.07087891 135.04357422 -74.07925781 134.27464844 -74.08789062 133.48242188 C-74.10491934 129.51473211 -73.98604115 125.87428766 -73 122 C-71.68 122 -70.36 122 -69 122 C-65.90410101 116.41105456 -64.32257997 111.96486901 -63.8125 105.625 C-63.73773437 104.85696045 -63.66296875 104.0889209 -63.5859375 103.29760742 C-62.99447011 96.91403997 -62.63489171 90.50944009 -62.42895508 84.10205078 C-62.28735849 80.58931925 -61.94654757 77.48709431 -60.91015625 74.1171875 C-59.67562814 71.11670676 -59.67562814 71.11670676 -60.9375 68.8125 C-61.288125 68.214375 -61.63875 67.61625 -62 67 C-61.77864038 64.56504415 -61.27536798 63.34420997 -59.75 61.4375 C-58 60 -58 60 -55.6640625 58.671875 C-49.81966233 55.00412827 -45.20510376 49.46978575 -40.75 44.25 C-33.78435769 36.14777269 -26.03618203 28.60390928 -17.90625 21.6796875 C-7.64194175 12.66224403 -7.64194175 12.66224403 -1 1 C-0.67 0.67 -0.34 0.34 0 0 Z M-8 103 C-11.85148093 107.62579955 -12.17502738 113.50151481 -13.0625 119.25 C-13.38467981 121.25553694 -13.70887293 123.26075157 -14.03515625 125.265625 C-14.27020874 126.71654541 -14.27020874 126.71654541 -14.51000977 128.19677734 C-15.09021218 131.51610175 -15.80696502 134.78865409 -16.58789062 138.06591797 C-17.25470335 141.19535541 -17.44365057 143.83106738 -17 147 C-14.74924217 149.02568205 -12.48809767 149.83026221 -9.65234375 150.81640625 C-0.23180098 154.21234852 3.64555298 159.39311071 7.90625 168.296875 C9.41795104 172.03293613 10.41614916 175.82803071 11.32421875 179.75 C11.858734 182.17461357 11.858734 182.17461357 14 184 C17.58343976 184.16677282 17.58343976 184.16677282 21 184 C23.0633061 179.87338781 22.70987852 174.66989913 23.0625 170.125 C23.15337891 169.0421875 23.24425781 167.959375 23.33789062 166.84375 C24.19528857 156.03924652 24.60826068 145.75477202 22.25 135.125 C22.09273437 134.32320312 21.93546875 133.52140625 21.7734375 132.6953125 C19.14604586 120.40720391 9.87072598 113.85828137 0.0625 107 C-0.50525146 106.60192139 -1.07300293 106.20384277 -1.65795898 105.79370117 C-4.56393983 103.65377395 -4.56393983 103.65377395 -8 103 Z " fill="#FAFAFB" transform="translate(589,32)"/>
<path d="M0 0 C4.72735802 4.55015355 7.73098206 10.26498431 8.375 16.8125 C8 20 8 20 7.1875 22.4375 C6.87473837 26.71190889 9.67513371 29.5664547 12 33 C13.875 36.375 13.875 36.375 15 39 C14.505 39.99 14.505 39.99 14 41 C13.29875 40.505 12.5975 40.01 11.875 39.5 C8.50604479 37.74228424 6.74917903 37.45324473 3 38 C0.30009338 39.79993774 -1.5418865 41.083773 -3 44 C-2.38253906 44.00257812 -1.76507812 44.00515625 -1.12890625 44.0078125 C5.7671428 44.32270058 10.9788073 46.10866573 16 51 C17.1875 53.640625 17.1875 53.640625 18 56 C19.99977858 57.99977858 23.84329904 57.43532807 26.5546875 57.62109375 C29 58 29 58 32 60 C32.625 61.83984375 32.625 61.83984375 33 63.9375 C33.541084 66.33746936 33.96552508 67.94311638 35.25 70.0625 C38.02541524 71.54932959 40.06658592 70.82900833 43 70 C43.33 69.34 43.66 68.68 44 68 C44.66 68 45.32 68 46 68 C46 70.31 46 72.62 46 75 C45.01 75 44.02 75 43 75 C43.2784375 76.11375 43.2784375 76.11375 43.5625 77.25 C43.99203108 79.94990963 43.85122974 81.44631077 43 84 C43.66 84.33 44.32 84.66 45 85 C45.495 93.415 45.495 93.415 46 102 C47.485 102.495 47.485 102.495 49 103 C52.03552363 107.54660208 51.40703092 112.7981205 51.4375 118.0625 C51.47037109 119.06861328 51.50324219 120.07472656 51.53710938 121.11132812 C51.55712823 123.8357127 51.52953371 126.32664294 51 129 C48.50390625 131.02734375 48.50390625 131.02734375 46 132 C45.33333333 134.5 45.33333333 134.5 46 137 C47.39585785 138.81476003 47.39585785 138.81476003 49 140 C48.2265625 140.5878125 48.2265625 140.5878125 47.4375 141.1875 C45.71152254 142.94289666 45.71152254 142.94289666 46.1875 145.5 C46.94271259 148.20696281 46.94271259 148.20696281 49 151 C47.02 151.99 47.02 151.99 45 153 C45.495 154.36125 45.495 154.36125 46 155.75 C47.09672844 159.31436743 47.30623596 161.8864147 46.3125 165.5 C45.72202701 168.09368577 45.72202701 168.09368577 47.4375 170.3125 C47.953125 170.869375 48.46875 171.42625 49 172 C47.87720538 172.98169476 46.75168527 173.96027298 45.625 174.9375 C44.99851562 175.48277344 44.37203125 176.02804688 43.7265625 176.58984375 C40.72268596 179.04323613 38.81018487 179.12272992 34.99951172 179.11352539 C33.43811966 179.11341209 33.43811966 179.11341209 31.84518433 179.11329651 C30.71807037 179.10813522 29.59095642 179.10297394 28.4296875 179.09765625 C26.70264084 179.09553383 26.70264084 179.09553383 24.94070435 179.09336853 C21.25211014 179.08775716 17.56357595 179.0752027 13.875 179.0625 C11.37890712 179.05748647 8.8828133 179.05292331 6.38671875 179.04882812 C0.25779191 179.03778403 -5.87109976 179.0210348 -12 179 C-13.34677147 173.92255784 -14.12008166 170.43978628 -13.4375 165.1875 C-13.29211047 158.33803762 -15.78377315 153.51471895 -19.0625 147.6875 C-19.527771 146.83244873 -19.99304199 145.97739746 -20.47241211 145.09643555 C-21.84633728 142.80562705 -23.08853683 140.86737479 -25 139 C-28.7533365 138.27212145 -28.7533365 138.27212145 -32 139 C-31.34 140.98 -30.68 142.96 -30 145 C-30.66 145 -31.32 145 -32 145 C-32 145.99 -32 146.98 -32 148 C-39.92 147.67 -47.84 147.34 -56 147 C-57 140 -57 140 -55.25 137.625 C-53 136 -53 136 -50 135 C-49.86424561 133.9262915 -49.72849121 132.85258301 -49.58862305 131.74633789 C-49.07774394 127.72511018 -48.55487925 123.70551335 -48.02856445 119.6862793 C-47.80333677 117.95362222 -47.58126871 116.22055115 -47.36254883 114.48706055 C-47.04578317 111.98107619 -46.71730599 109.47685032 -46.38671875 106.97265625 C-46.29283371 106.20977798 -46.19894867 105.44689972 -46.10221863 104.66090393 C-45.46260613 99.92138661 -44.29294509 95.66891574 -42.70622253 91.16221619 C-41.65454013 87.94231792 -41.13038431 84.70237641 -40.61328125 81.359375 C-40.50654587 80.6704718 -40.39981049 79.9815686 -40.2898407 79.27178955 C-40.06840492 77.82714142 -39.85097106 76.38187446 -39.63745117 74.93603516 C-39.31492877 72.76633902 -38.97376236 70.60015068 -38.63085938 68.43359375 C-37.46126449 60.79620888 -36.77440564 53.5668081 -37.19946289 45.81030273 C-36.57048051 36.94834904 -28.41878685 30.08776956 -22.39453125 24.31640625 C-19.77973452 21.786921 -17.43252179 19.12099165 -15.0703125 16.359375 C-10.18078453 10.78715822 -5.05973233 5.41733747 0 0 Z M-10 71 C-13.85148093 75.62579955 -14.17502738 81.50151481 -15.0625 87.25 C-15.38467981 89.25553694 -15.70887293 91.26075157 -16.03515625 93.265625 C-16.27020874 94.71654541 -16.27020874 94.71654541 -16.51000977 96.19677734 C-17.09021218 99.51610175 -17.80696502 102.78865409 -18.58789062 106.06591797 C-19.25470335 109.19535541 -19.44365057 111.83106738 -19 115 C-16.74924217 117.02568205 -14.48809767 117.83026221 -11.65234375 118.81640625 C-2.23180098 122.21234852 1.64555298 127.39311071 5.90625 136.296875 C7.41795104 140.03293613 8.41614916 143.82803071 9.32421875 147.75 C9.858734 150.17461357 9.858734 150.17461357 12 152 C15.58343976 152.16677282 15.58343976 152.16677282 19 152 C21.0633061 147.87338781 20.70987852 142.66989913 21.0625 138.125 C21.15337891 137.0421875 21.24425781 135.959375 21.33789062 134.84375 C22.19528857 124.03924652 22.60826068 113.75477202 20.25 103.125 C20.09273437 102.32320312 19.93546875 101.52140625 19.7734375 100.6953125 C17.14604586 88.40720391 7.87072598 81.85828137 -1.9375 75 C-2.50525146 74.60192139 -3.07300293 74.20384277 -3.65795898 73.79370117 C-6.56393983 71.65377395 -6.56393983 71.65377395 -10 71 Z " fill="#232021" transform="translate(591,64)"/>
<path d="M0 0 C5.28 0.061875 10.56 0.12375 16 0.1875 C16 15.3675 16 30.5475 16 46.1875 C6.1 46.6825 6.1 46.6825 -4 47.1875 C-8.18674977 52.17176099 -8.18674977 52.17176099 -8.48583984 57.83227539 C-8.4919931 58.94014908 -8.49814636 60.04802277 -8.50448608 61.18946838 C-8.49011505 62.37604538 -8.47574402 63.56262238 -8.4609375 64.78515625 C-8.46002106 66.01157333 -8.45910461 67.23799042 -8.4581604 68.50157166 C-8.4521242 71.09133785 -8.43637787 73.68109706 -8.41162109 76.27075195 C-8.37510395 80.23870509 -8.37060189 84.20572446 -8.37109375 88.17382812 C-8.36126291 90.69011225 -8.34960606 93.20639004 -8.3359375 95.72265625 C-8.33371185 96.91125748 -8.33148621 98.0998587 -8.32919312 99.32447815 C-8.31643341 100.42919968 -8.30367371 101.5339212 -8.29052734 102.67211914 C-8.28290375 103.64298965 -8.27528015 104.61386017 -8.26742554 105.614151 C-7.98565529 108.32553449 -7.49086317 109.91770489 -6 112.1875 C-0.96162188 115.91489791 -0.96162188 115.91489791 16 115.1875 C16 130.0375 16 144.8875 16 160.1875 C10.4725 160.31125 4.945 160.435 -0.75 160.5625 C-3.32699707 160.64443604 -3.32699707 160.64443604 -5.95605469 160.72802734 C-18.00889611 160.95087918 -26.52746722 158.37947291 -35.75 150.1875 C-49.46555563 135.44951204 -53.31474627 117.39646926 -53.30078125 97.82421875 C-53.30468267 96.46100233 -53.30902023 95.0977871 -53.31376648 93.73457336 C-53.32117467 90.893077 -53.32097751 88.05170498 -53.31567383 85.21020508 C-53.30989211 81.60991794 -53.32680491 78.01014744 -53.3500185 74.40994549 C-53.36491589 71.59824259 -53.36560602 68.78665948 -53.36250877 65.97492409 C-53.36325596 64.01554206 -53.37699529 62.05617829 -53.39118958 60.09684753 C-53.29356388 40.90104774 -47.99247713 24.3525151 -35 10.1875 C-24.01865015 0.56432615 -13.94249577 -0.23078643 0 0 Z " fill="#FDFDFD" transform="translate(86,97.8125)"/>
<path d="M0 0 C14.52 0 29.04 0 44 0 C44.02254545 20.84413903 44.04097826 41.68826823 44.05181217 62.53241634 C44.05697553 72.21001051 44.06401897 81.88759658 44.07543945 91.56518555 C44.08538509 99.99700331 44.09185314 108.42881521 44.09408849 116.86063868 C44.09539581 121.32807392 44.09848295 125.7954924 44.10573006 130.26292229 C44.11248838 134.4628416 44.11461735 138.66273713 44.11310768 142.86266136 C44.11338409 144.40868509 44.11539033 145.95470956 44.11920547 147.50072861 C44.1241398 149.60235776 44.12299928 151.70389572 44.12025452 153.80552673 C44.12117631 154.98449996 44.1220981 156.16347319 44.12304783 157.37817287 C44 160 44 160 43 161 C28.81 161 14.62 161 0 161 C0 107.87 0 54.74 0 0 Z " fill="#F9F9FA" transform="translate(324,98)"/>
<path d="M0 0 C14.19 0 28.38 0 43 0 C50.85838307 15.71676614 50.85838307 15.71676614 53.515625 21.80078125 C54.12320647 23.1828985 54.73087651 24.56497681 55.33862305 25.94702148 C55.64907562 26.65639862 55.9595282 27.36577576 56.27938843 28.09664917 C62.57117119 42.46043018 69.06672624 56.72269842 75.6875 70.9375 C81.59417193 83.62320348 87.43913496 96.32804553 93.12060547 109.11645508 C96.2168059 116.07025735 99.3724283 122.99271093 102.57421875 129.8984375 C102.9669397 130.74684204 103.35966064 131.59524658 103.76428223 132.46936035 C105.70848671 136.66872221 107.65837123 140.86527939 109.61767578 145.05761719 C110.32478917 146.58256876 111.03166926 148.10762854 111.73828125 149.6328125 C112.06882004 150.33449554 112.39935883 151.03617859 112.73991394 151.75912476 C114.09147221 154.68954624 115 156.73216365 115 160 C100.81 160 86.62 160 72 160 C63.97633657 143.95267314 63.97633657 143.95267314 61.2734375 137.7421875 C60.96375031 137.03949738 60.65406311 136.33680725 60.33499146 135.61282349 C59.68153564 134.13000733 59.02943248 132.64659435 58.37866211 131.16259766 C53.21017165 119.38231168 47.96082179 107.64798091 42.5 96 C37.3110138 84.92283098 32.32291693 73.76747149 27.38864136 62.57516479 C23.27979802 53.26263734 19.09321648 43.99150643 14.79296875 34.765625 C14.35668152 33.8291362 13.92039429 32.8926474 13.47088623 31.92778015 C11.33298919 27.34390192 9.1868161 22.7640852 7.03076172 18.1887207 C6.25087836 16.52299519 5.47108845 14.85722592 4.69140625 13.19140625 C4.33177292 12.43470642 3.97213959 11.67800659 3.60160828 10.89837646 C3.27231827 10.19271545 2.94302826 9.48705444 2.60375977 8.76000977 C2.3167067 8.1513356 2.02965363 7.54266144 1.73390198 6.9155426 C1 5 1 5 0 0 Z " fill="#FCFCFC" transform="translate(192,98)"/>
<path d="M0 0 C27.06 0 54.12 0 82 0 C82.04125 8.8275 82.0825 17.655 82.125 26.75 C82.14320801 29.51213867 82.16141602 32.27427734 82.18017578 35.12011719 C82.18602509 37.34570116 82.19111961 39.57128729 82.1953125 41.796875 C82.20554443 42.92303223 82.21577637 44.04918945 82.22631836 45.20947266 C82.23040886 64.08302091 77.36217985 78.89766445 64.375 92.8125 C55.80422496 100.7066349 47.6288727 104.14735691 35.94921875 104.09765625 C34.14070435 104.09390991 34.14070435 104.09390991 32.2956543 104.09008789 C30.01461792 104.07643188 30.01461792 104.07643188 27.6875 104.0625 C20.4171875 104.0315625 20.4171875 104.0315625 13 104 C13 88.49 13 72.98 13 57 C22.9 56.505 22.9 56.505 33 56 C37.4472136 52.1490712 37.4472136 52.1490712 39 46 C26.13 46 13.26 46 0 46 C0 30.82 0 15.64 0 0 Z " fill="#FCFCFC" transform="translate(93,155)"/>
<path d="M0 0 C2.97 0 5.94 0 9 0 C11.43299849 5.23396385 13.86406948 10.46881811 16.29370117 15.7043457 C17.11224112 17.46758502 17.9312191 19.23062108 18.75073242 20.9934082 C19.13914307 21.8289624 19.52755371 22.6645166 19.92773438 23.52539062 C20.32721786 24.38238052 20.72670135 25.23937042 21.13829041 26.12232971 C21.98547285 27.95670555 22.82105551 29.79647185 23.64649963 31.64073181 C25.90003546 36.64312137 28.25009852 41.51890959 30.93041992 46.30912018 C43.88928581 69.60956334 44.94038124 90.2939123 44.02996826 116.5958252 C43.84540652 122.51715069 43.77996428 128.44099252 43.69316864 134.36440277 C43.55034679 143.24792195 43.26216187 152.11562556 43 161 C28.81 161 14.62 161 0 161 C0 107.87 0 54.74 0 0 Z " fill="#FCFCFD" transform="translate(179,98)"/>
<path d="M0 0 C14.19 0 28.38 0 43 0 C43 52.8 43 105.6 43 160 C40.03 160 37.06 160 34 160 C29.0642689 149.4475769 24.15935037 138.88115088 19.27587891 128.30444336 C17.77590192 125.05661454 16.27400373 121.80967566 14.77114773 118.56317806 C14.01379738 116.91951692 13.26094393 115.27376924 12.51447392 113.62513828 C10.63926874 109.49112868 8.71527751 105.407903 6.61582947 101.38267517 C0.34500725 89.0382363 -1.24484538 78.95338945 -0.87890625 65.234375 C-0.86205648 63.3348497 -0.84927558 61.43528447 -0.84031677 59.53570557 C-0.80645127 54.60943713 -0.71849931 49.68567467 -0.61798096 44.76037598 C-0.50834673 38.81166357 -0.4681638 32.86209861 -0.41590118 26.91265869 C-0.32952423 17.940046 -0.15677409 8.97289734 0 0 Z " fill="#FDFDFD" transform="translate(277,98)"/>
<path d="M0 0 C5.919375 -0.0825 11.83875 -0.165 17.9375 -0.25 C19.78722412 -0.28641602 21.63694824 -0.32283203 23.54272461 -0.36035156 C39.10648418 -0.53975344 39.10648418 -0.53975344 46 4 C47.05501709 4.65246704 47.05501709 4.65246704 48.13134766 5.31811523 C58.59561101 12.06101667 65.26674233 24.69506338 68.3125 36.5 C68.95568109 39.96116516 69.07193114 43.26363577 69.04296875 46.78125 C69.03676514 47.76158203 69.03056152 48.74191406 69.02416992 49.75195312 C69.01619385 50.49380859 69.00821777 51.23566406 69 52 C62.93114683 52.12348196 56.86302258 52.21428371 50.79321289 52.2746582 C48.72797919 52.2998222 46.66283471 52.33395684 44.59790039 52.37719727 C41.63144953 52.43776616 38.66617448 52.46619036 35.69921875 52.48828125 C34.7741301 52.51408768 33.84904144 52.5398941 32.8959198 52.56648254 C30.49316947 52.56753686 28.3412831 52.54260177 26 52 C24.2265625 49.51367188 24.2265625 49.51367188 23 47 C20.5088538 46.22324158 20.5088538 46.22324158 17.67578125 46.29296875 C16.74934814 46.26485107 15.82291504 46.2367334 14.8684082 46.20776367 C13.6949585 46.20107666 12.52150879 46.19438965 11.3125 46.1875 C7.579375 46.125625 3.84625 46.06375 0 46 C0 30.82 0 15.64 0 0 Z " fill="#FCFCFD" transform="translate(106,98)"/>
<path d="M0 0 C1.97613281 0.00386719 1.97613281 0.00386719 3.9921875 0.0078125 C5.29414063 0.00523438 6.59609375 0.00265625 7.9375 0 C17.87082009 0.33571857 17.87082009 0.33571857 20.76171875 2.6484375 C22.40866939 6.34971172 22.44360764 9.86875382 22.5546875 13.8828125 C22.58739746 14.7166748 22.62010742 15.55053711 22.65380859 16.40966797 C23.22288391 32.28656818 23.22288391 32.28656818 22.8671875 40.1328125 C21.8671875 41.1328125 21.8671875 41.1328125 19.09375 41.265625 C-2.04585598 41.21976902 -2.04585598 41.21976902 -4.1328125 39.1328125 C-4.23384505 36.33287653 -4.27251338 33.55812606 -4.265625 30.7578125 C-4.26658173 29.91814941 -4.26753845 29.07848633 -4.26852417 28.21337891 C-4.26920598 26.43456955 -4.26735167 24.65575773 -4.26318359 22.87695312 C-4.25783533 20.14447474 -4.26312855 17.41216074 -4.26953125 14.6796875 C-4.26887047 12.9557288 -4.26758931 11.23177021 -4.265625 9.5078125 C-4.26764923 8.68490723 -4.26967346 7.86200195 -4.27175903 7.01416016 C-4.24331926 0.17989134 -4.24331926 0.17989134 0 0 Z " fill="#252122" transform="translate(467.1328125,107.8671875)"/>
<path d="M0 0 C3.526875 -0.061875 7.05375 -0.12375 10.6875 -0.1875 C12.342052 -0.22846802 12.342052 -0.22846802 14.0300293 -0.27026367 C23.30463822 -0.34915681 23.30463822 -0.34915681 27 3 C29.60267589 7.36116238 29.4035075 11.41964954 29.4375 16.375 C29.47037109 17.21289062 29.50324219 18.05078125 29.53710938 18.9140625 C29.57381888 23.15901603 29.38593305 26.11937018 26.72265625 29.5390625 C22.95232832 32.94696293 20.1934312 33.12944507 15.234375 33.09765625 C14.43225586 33.09515869 13.63013672 33.09266113 12.80371094 33.09008789 C11.79598633 33.08098389 10.78826172 33.07187988 9.75 33.0625 C6.5325 33.041875 3.315 33.02125 0 33 C0 22.11 0 11.22 0 0 Z " fill="#F4F4F5" transform="translate(151,276)"/>
<path d="M0 0 C5.28 0 10.56 0 16 0 C18.31 6.27 20.62 12.54 23 19 C23.33 12.73 23.66 6.46 24 0 C26.97 0 29.94 0 33 0 C33 10.89 33 21.78 33 33 C28.05 33 23.1 33 18 33 C17.50628906 31.72382813 17.01257813 30.44765625 16.50390625 29.1328125 C15.85682171 27.46352194 15.20968351 25.79425219 14.5625 24.125 C14.23701172 23.28324219 13.91152344 22.44148438 13.57617188 21.57421875 C13.26357422 20.76855469 12.95097656 19.96289062 12.62890625 19.1328125 C12.34088135 18.38918457 12.05285645 17.64555664 11.75610352 16.87939453 C11.01189526 14.95624015 11.01189526 14.95624015 10 13 C10 19.6 10 26.2 10 33 C6.7 33 3.4 33 0 33 C0 22.11 0 11.22 0 0 Z " fill="#F1F1F1" transform="translate(200,276)"/>
<path d="M0 0 C1.30453125 -0.03738281 2.6090625 -0.07476562 3.953125 -0.11328125 C8.34533437 0.37926075 10.39585902 1.47934245 13.75 4.3125 C16.55446197 7.89507859 16.1175022 12.32378027 16.125 16.6875 C16.14949219 17.43 16.17398438 18.1725 16.19921875 18.9375 C16.22689336 24.15877682 15.33226029 27.26564623 11.75 31.3125 C7.99432396 33.48453264 4.53914075 33.60996796 0.25 33.625 C-0.8534375 33.64175781 -1.956875 33.65851563 -3.09375 33.67578125 C-7.43359871 33.17626896 -9.80498545 31.58322551 -13.03125 28.74609375 C-15.02265389 24.76966867 -14.76258435 20.75749968 -14.75 16.375 C-14.77835937 15.48103516 -14.80671875 14.58707031 -14.8359375 13.66601562 C-14.84966842 9.04212749 -14.77776184 6.98505364 -11.84375 3.24609375 C-7.68951565 0.14918712 -5.19268788 0.09672654 0 0 Z " fill="#F6F6F6" transform="translate(131.25,275.6875)"/>
<path d="M0 0 C1.30453125 -0.03738281 2.6090625 -0.07476562 3.953125 -0.11328125 C8.34533437 0.37926075 10.39585902 1.47934245 13.75 4.3125 C16.55446197 7.89507859 16.1175022 12.32378027 16.125 16.6875 C16.14949219 17.43 16.17398438 18.1725 16.19921875 18.9375 C16.22689336 24.15877682 15.33226029 27.26564623 11.75 31.3125 C7.99432396 33.48453264 4.53914075 33.60996796 0.25 33.625 C-0.8534375 33.64175781 -1.956875 33.65851563 -3.09375 33.67578125 C-7.43359871 33.17626896 -9.80498545 31.58322551 -13.03125 28.74609375 C-15.02265389 24.76966867 -14.76258435 20.75749968 -14.75 16.375 C-14.77835937 15.48103516 -14.80671875 14.58707031 -14.8359375 13.66601562 C-14.84966842 9.04212749 -14.77776184 6.98505364 -11.84375 3.24609375 C-7.68951565 0.14918712 -5.19268788 0.09672654 0 0 Z " fill="#F6F6F6" transform="translate(98.25,275.6875)"/>
<path d="M0 0 C1.96066406 -0.03867187 1.96066406 -0.03867187 3.9609375 -0.078125 C7.80495748 0.2661156 9.60994619 0.90373995 12.625 3.25 C15.52091497 7.59387245 15.03141314 11.51293826 15.0625 16.625 C15.11180664 18.04425781 15.11180664 18.04425781 15.16210938 19.4921875 C15.19852453 24.20629458 15.194461 26.49515521 12.28515625 30.3515625 C6.65501786 34.36954672 0.28821703 33.70840314 -6.375 33.25 C-11.62207875 31.47132924 -11.62207875 31.47132924 -13.49853516 28.42749023 C-15.07253943 24.51703226 -14.74402103 20.47685439 -14.75 16.3125 C-14.77449219 15.41853516 -14.79898437 14.52457031 -14.82421875 13.60351562 C-14.84317804 9.34715438 -14.76404112 6.89978145 -12.5390625 3.18359375 C-8.68518295 -0.25985459 -4.98385479 0.05874878 0 0 Z " fill="#F8F8F8" transform="translate(395.375,275.75)"/>
<path d="M0 0 C4.95 0 9.9 0 15 0 C17.52728785 5.98568174 19.94439583 11.8331875 22 18 C22.33 12.06 22.66 6.12 23 0 C25.97 0 28.94 0 32 0 C32 10.89 32 21.78 32 33 C27.05 33 22.1 33 17 33 C14.69 26.4 12.38 19.8 10 13 C9.67 19.6 9.34 26.2 9 33 C6.03 33 3.06 33 0 33 C0 22.11 0 11.22 0 0 Z " fill="#F3F3F4" transform="translate(553,276)"/>
<path d="M0 0 C3.526875 -0.103125 7.05375 -0.20625 10.6875 -0.3125 C11.79053467 -0.35802002 12.89356934 -0.40354004 14.0300293 -0.45043945 C21.23502473 -0.55258656 21.23502473 -0.55258656 25.1796875 2.296875 C27.53989944 5.80173908 27.52824812 7.84947906 27 12 C26 14.4375 26 14.4375 25 16 C25.66 16.66 26.32 17.32 27 18 C27.30078125 20.49609375 27.30078125 20.49609375 27.3125 23.4375 C27.33763672 24.88962891 27.33763672 24.88962891 27.36328125 26.37109375 C27 29 27 29 25.66796875 30.78515625 C22.57500534 33.03787667 19.80149145 33.12000904 16.11328125 33.09765625 C15.26805908 33.09515869 14.42283691 33.09266113 13.55200195 33.09008789 C12.48296631 33.08098389 11.41393066 33.07187988 10.3125 33.0625 C5.2078125 33.0315625 5.2078125 33.0315625 0 33 C0 22.11 0 11.22 0 0 Z " fill="#F5F5F5" transform="translate(350,276)"/>
<path d="M0 0 C3.526875 -0.061875 7.05375 -0.12375 10.6875 -0.1875 C12.342052 -0.22846802 12.342052 -0.22846802 14.0300293 -0.27026367 C23.14958118 -0.34783783 23.14958118 -0.34783783 27 3 C28.28282363 5.56564725 28.20391953 7.51033069 28.25 10.375 C28.27578125 11.33148438 28.3015625 12.28796875 28.328125 13.2734375 C27.95439914 16.37892147 27.06626291 17.70536066 25 20 C25.49113281 20.38800781 25.98226563 20.77601563 26.48828125 21.17578125 C28.50725753 23.61211696 28.30898805 25.06930672 28.1875 28.1875 C28.16042969 29.08855469 28.13335937 29.98960937 28.10546875 30.91796875 C28.07066406 31.60503906 28.03585937 32.29210937 28 33 C26.52093108 33.02689216 25.04172517 33.04634621 23.5625 33.0625 C22.32693359 33.07990234 22.32693359 33.07990234 21.06640625 33.09765625 C19 33 19 33 18 32 C17.63239269 29.67182036 17.29758419 27.3381615 17 25 C14.36 24.67 11.72 24.34 9 24 C9 26.97 9 29.94 9 33 C6.03 33 3.06 33 0 33 C0 22.11 0 11.22 0 0 Z " fill="#F5F5F6" transform="translate(448,276)"/>
<path d="M0 0 C1.58179615 -0.10867302 3.16577153 -0.18589827 4.75 -0.25 C5.63171875 -0.29640625 6.5134375 -0.3428125 7.421875 -0.390625 C10.77971328 0.11813838 11.63821054 1.63821054 14 4 C16.99071963 4.8686692 16.99071963 4.8686692 20.1875 5.1875 C25.93055556 5.93055556 25.93055556 5.93055556 27 7 C27.0991657 8.62257544 27.13079777 10.24939831 27.1328125 11.875 C27.13474609 13.35226563 27.13474609 13.35226563 27.13671875 14.859375 C27.13285156 15.89578125 27.12898438 16.9321875 27.125 18 C27.13080078 19.55460937 27.13080078 19.55460937 27.13671875 21.140625 C27.13542969 22.12546875 27.13414062 23.1103125 27.1328125 24.125 C27.13168457 25.03507812 27.13055664 25.94515625 27.12939453 26.8828125 C27 29 27 29 26 30 C24.09715013 30.09974389 22.19061747 30.1308063 20.28515625 30.1328125 C19.12435547 30.13410156 17.96355469 30.13539063 16.76757812 30.13671875 C15.54490234 30.13285156 14.32222656 30.12898438 13.0625 30.125 C11.84369141 30.12886719 10.62488281 30.13273437 9.36914062 30.13671875 C7.62600586 30.13478516 7.62600586 30.13478516 5.84765625 30.1328125 C4.77523682 30.13168457 3.70281738 30.13055664 2.59790039 30.12939453 C0 30 0 30 -2 29 C-2.05837668 25.29173349 -2.09372277 21.5835863 -2.125 17.875 C-2.15013672 16.30492187 -2.15013672 16.30492187 -2.17578125 14.703125 C-2.20929909 9.40730664 -2.17213685 4.9428941 0 0 Z " fill="#2B2728" transform="translate(464,157)"/>
<path d="M0 0 C0.80759766 -0.03738281 1.61519531 -0.07476562 2.44726562 -0.11328125 C6.83435918 -0.17795585 8.63543781 -0.04363539 12.2421875 2.69140625 C14.54562223 5.86903609 14.63394843 7.53554354 14.1875 11.375 C11.2175 11.375 8.2475 11.375 5.1875 11.375 C4.8575 10.715 4.5275 10.055 4.1875 9.375 C1.2175 9.375 -1.7525 9.375 -4.8125 9.375 C-4.8125 14.325 -4.8125 19.275 -4.8125 24.375 C-2.1725 24.375 0.4675 24.375 3.1875 24.375 C3.8475 23.055 4.5075 21.735 5.1875 20.375 C3.2075 20.375 1.2275 20.375 -0.8125 20.375 C-0.8125 18.395 -0.8125 16.415 -0.8125 14.375 C4.1375 14.375 9.0875 14.375 14.1875 14.375 C14.60344011 26.99184989 14.60344011 26.99184989 11.1875 31.375 C7.81294464 33.85717294 4.40314004 33.67430439 0.3125 33.6875 C-0.88117188 33.70425781 -2.07484375 33.72101563 -3.3046875 33.73828125 C-8.18837695 33.2325094 -11.40976354 31.99468511 -14.65625 28.24609375 C-16.26119171 24.26084999 -16.32640918 20.69718636 -16.3125 16.4375 C-16.34085937 15.65181641 -16.36921875 14.86613281 -16.3984375 14.05664062 C-16.41246497 9.86593488 -16.09481276 7.18336353 -13.40625 3.87109375 C-9.17705323 -0.19887121 -5.63424315 0.09752427 0 0 Z " fill="#F4F4F4" transform="translate(296.8125,275.625)"/>
<path d="M0 0 C0.75539063 -0.02900391 1.51078125 -0.05800781 2.2890625 -0.08789062 C6.19096433 -0.13223042 8.1861279 0.05032412 11.61328125 2.09765625 C14.28885729 5.04338754 14.40002453 7.4129251 14.625 11.3125 C11.325 11.3125 8.025 11.3125 4.625 11.3125 C4.625 10.3225 4.625 9.3325 4.625 8.3125 C1.325 8.3125 -1.975 8.3125 -5.375 8.3125 C-5.40192484 10.60410319 -5.42136124 12.89579546 -5.4375 15.1875 C-5.44910156 16.46367187 -5.46070313 17.73984375 -5.47265625 19.0546875 C-5.60676569 22.19914652 -5.60676569 22.19914652 -4.375 24.3125 C-1.735 24.3125 0.905 24.3125 3.625 24.3125 C3.955 22.9925 4.285 21.6725 4.625 20.3125 C2.645 20.3125 0.665 20.3125 -1.375 20.3125 C-1.375 18.3325 -1.375 16.3525 -1.375 14.3125 C3.575 14.3125 8.525 14.3125 13.625 14.3125 C14.11956522 27.66576087 14.11956522 27.66576087 11.796875 30.703125 C7.92880731 33.56939099 4.49832705 33.50261723 -0.1875 33.5625 C-1.99154297 33.60117187 -1.99154297 33.60117187 -3.83203125 33.640625 C-7.72606229 33.27998706 -10.07272623 32.3758185 -13.375 30.3125 C-17.42512941 24.23730589 -17.15210904 16.20475463 -16.03125 9.1484375 C-15.17761928 5.8050505 -14.21037378 3.35396912 -11.375 1.3125 C-7.57279525 0.04509842 -3.96375078 0.05021644 0 0 Z " fill="#F5F5F6" transform="translate(66.375,275.6875)"/>
<path d="M0 0 C2.97 0 5.94 0 9 0 C9 3.96 9 7.92 9 12 C12.3 12 15.6 12 19 12 C19 8.04 19 4.08 19 0 C21.97 0 24.94 0 28 0 C28 10.89 28 21.78 28 33 C25.03 33 22.06 33 19 33 C19 28.71 19 24.42 19 20 C15.7 20 12.4 20 9 20 C9 24.29 9 28.58 9 33 C6.03 33 3.06 33 0 33 C0 22.11 0 11.22 0 0 Z " fill="#F7F7F7" transform="translate(316,276)"/>
<path d="M0 0 C7.92 0 15.84 0 24 0 C24 2.64 24 5.28 24 8 C19.38 8 14.76 8 10 8 C10 9.65 10 11.3 10 13 C14.29 13 18.58 13 23 13 C23 15.31 23 17.62 23 20 C18.71 20 14.42 20 10 20 C10 21.65 10 23.3 10 25 C14.95 25 19.9 25 25 25 C25 27.64 25 30.28 25 33 C21.02084841 33.02886984 17.04172347 33.04675406 13.0625 33.0625 C11.35803711 33.07506836 11.35803711 33.07506836 9.61914062 33.08789062 C8.53955078 33.09111328 7.45996094 33.09433594 6.34765625 33.09765625 C4.84730835 33.10551147 4.84730835 33.10551147 3.31665039 33.11352539 C1 33 1 33 0 32 C-0.0883967 29.6243148 -0.11530305 27.27791326 -0.09765625 24.90234375 C-0.0962413 24.19348526 -0.09482635 23.48462677 -0.09336853 22.75428772 C-0.08775443 20.48198288 -0.07519963 18.20977525 -0.0625 15.9375 C-0.05748681 14.40039204 -0.05292359 12.86328255 -0.04882812 11.32617188 C-0.0386297 7.55071333 -0.01905732 3.77546596 0 0 Z " fill="#EEEEEF" transform="translate(622,276)"/>
<path d="M0 0 C7.92 0 15.84 0 24 0 C24 2.64 24 5.28 24 8 C19.38 8 14.76 8 10 8 C10 9.65 10 11.3 10 13 C14.29 13 18.58 13 23 13 C23 15.31 23 17.62 23 20 C18.71 20 14.42 20 10 20 C10 21.65 10 23.3 10 25 C14.95 25 19.9 25 25 25 C25 27.31 25 29.62 25 32 C23.31483046 33.68516954 21.21232212 33.13008019 18.90625 33.1328125 C17.87628906 33.13410156 16.84632813 33.13539063 15.78515625 33.13671875 C14.15900391 33.13091797 14.15900391 33.13091797 12.5 33.125 C11.41589844 33.12886719 10.33179688 33.13273437 9.21484375 33.13671875 C8.18488281 33.13542969 7.15492188 33.13414062 6.09375 33.1328125 C5.14177734 33.13168457 4.18980469 33.13055664 3.20898438 33.12939453 C1 33 1 33 0 32 C-0.0883967 29.6243148 -0.11530305 27.27791326 -0.09765625 24.90234375 C-0.0962413 24.19348526 -0.09482635 23.48462677 -0.09336853 22.75428772 C-0.08775443 20.48198288 -0.07519963 18.20977525 -0.0625 15.9375 C-0.05748681 14.40039204 -0.05292359 12.86328255 -0.04882812 11.32617188 C-0.0386297 7.55071333 -0.01905732 3.77546596 0 0 Z " fill="#EEEEEE" transform="translate(523,276)"/>
<path d="M0 0 C2.97 0 5.94 0 9 0 C9.33 7.92 9.66 15.84 10 24 C15.47825081 24.4472136 15.47825081 24.4472136 18 23 C18.33 15.41 18.66 7.82 19 0 C21.97 0 24.94 0 28 0 C28.08725659 4.2290362 28.1404789 8.45784012 28.1875 12.6875 C28.21263672 13.88568359 28.23777344 15.08386719 28.26367188 16.31835938 C28.27333984 17.47529297 28.28300781 18.63222656 28.29296875 19.82421875 C28.3086792 20.88729248 28.32438965 21.95036621 28.34057617 23.0456543 C27.95018405 26.43213108 27.0161997 28.27597906 25 31 C19.5140097 34.10403895 13.10396952 33.51313169 7 33 C1.48979592 30.97959184 1.48979592 30.97959184 0 28 C-0.08543895 25.89471067 -0.10714725 23.78668843 -0.09765625 21.6796875 C-0.09443359 20.42285156 -0.09121094 19.16601562 -0.08789062 17.87109375 C-0.07951172 16.55238281 -0.07113281 15.23367188 -0.0625 13.875 C-0.05748489 12.53515789 -0.05292201 11.195314 -0.04882812 9.85546875 C-0.03701086 6.57026794 -0.02053617 3.28515603 0 0 Z " fill="#F7F7F7" transform="translate(415,276)"/>
<path d="M0 0 C7.92 0 15.84 0 24 0 C24 2.64 24 5.28 24 8 C19.38 8 14.76 8 10 8 C10 9.65 10 11.3 10 13 C14.29 13 18.58 13 23 13 C23 14.98 23 16.96 23 19 C18.38 19 13.76 19 9 19 C9 20.98 9 22.96 9 25 C13.95 25 18.9 25 24 25 C24 27.64 24 30.28 24 33 C20.18751574 33.02887236 16.3750593 33.04675492 12.5625 33.0625 C11.47388672 33.07087891 10.38527344 33.07925781 9.26367188 33.08789062 C8.22919922 33.09111328 7.19472656 33.09433594 6.12890625 33.09765625 C5.17056885 33.10289307 4.21223145 33.10812988 3.22485352 33.11352539 C1 33 1 33 0 32 C-0.0883967 29.6243148 -0.11530305 27.27791326 -0.09765625 24.90234375 C-0.0962413 24.19348526 -0.09482635 23.48462677 -0.09336853 22.75428772 C-0.08775443 20.48198288 -0.07519963 18.20977525 -0.0625 15.9375 C-0.05748681 14.40039204 -0.05292359 12.86328255 -0.04882812 11.32617188 C-0.0386297 7.55071333 -0.01905732 3.77546596 0 0 Z " fill="#F0F0F1" transform="translate(238,276)"/>
<path d="M0 0 C0.75990234 -0.03738281 1.51980469 -0.07476562 2.30273438 -0.11328125 C6.54704619 -0.17965624 8.20973731 0.0139003 11.7109375 2.66015625 C14.21221894 6.09571079 14.09492295 8.21928592 13.6875 12.375 C10.7175 12.375 7.7475 12.375 4.6875 12.375 C4.3575 11.055 4.0275 9.735 3.6875 8.375 C1.0475 8.705 -1.5925 9.035 -4.3125 9.375 C-4.33935412 11.68743792 -4.35882841 13.9999627 -4.375 16.3125 C-4.38660156 17.60027344 -4.39820313 18.88804687 -4.41015625 20.21484375 C-4.67782549 23.23798403 -4.67782549 23.23798403 -3.3125 24.375 C-0.97305264 24.08769945 1.3614143 23.75563221 3.6875 23.375 C4.0175 22.385 4.3475 21.395 4.6875 20.375 C7.6575 20.375 10.6275 20.375 13.6875 20.375 C14.00900943 24.47424523 14.10134837 26.71855086 11.875 30.25 C7.46418875 34.53478807 1.90946498 33.70011032 -3.90625 33.6640625 C-8.36417358 33.28575247 -10.18296729 32.50453271 -13.3125 29.375 C-14.73927273 25.09468182 -14.577156 20.98457758 -14.625 16.5 C-14.65400391 15.60152344 -14.68300781 14.70304687 -14.71289062 13.77734375 C-14.75435146 9.45903791 -14.72985071 7.05136631 -12.41796875 3.3046875 C-8.58484739 -0.20841445 -4.9791393 0.091513 0 0 Z " fill="#F8F8F9" transform="translate(604.3125,275.625)"/>
<path d="M0 0 C4.13008098 1.69628326 6.79459484 3.05348551 9 7 C10.02727655 11.12399426 10.32072868 15.27073954 10.5625 19.5 C10.6049585 20.22179443 10.64741699 20.94358887 10.69116211 21.68725586 C11.18683452 31.11899426 11.08305953 40.55890054 11 50 C10.34 50 9.68 50 9 50 C9 57.26 9 64.52 9 72 C3.9085686 74.03657256 0.3746797 74.5186854 -5 75 C-5 69.39 -5 63.78 -5 58 C-2.525 57.505 -2.525 57.505 0 57 C-1.65 56.67 -3.3 56.34 -5 56 C-5 55.67 -5 55.34 -5 55 C1.435 54.505 1.435 54.505 8 54 C6.515 33.705 6.515 33.705 5 13 C2.03 12.01 -0.94 11.02 -4 10 C-2.68 9.34 -1.36 8.68 0 8 C-1.051875 7.608125 -2.10375 7.21625 -3.1875 6.8125 C-7.50495738 4.97342079 -10.86800323 2.26399355 -13 -2 C-9.06759991 -3.96620005 -4.00193237 -1.28310544 0 0 Z " fill="#E4E5E6" transform="translate(507,104)"/>
<path d="M0 0 C7.92 0 15.84 0 24 0 C24 2.64 24 5.28 24 8 C19.38 8 14.76 8 10 8 C10 9.65 10 11.3 10 13 C14.29 13 18.58 13 23 13 C23 15.64 23 18.28 23 21 C18.71 21 14.42 21 10 21 C10 24.96 10 28.92 10 33 C6.7 33 3.4 33 0 33 C0 22.11 0 11.22 0 0 Z " fill="#EEEFEF" transform="translate(496,276)"/>
<path d="M0 0 C6.01869873 -0.09866719 11.82967508 0.20583845 17.8125 0.87890625 C18.534375 0.91886719 19.25625 0.95882812 20 1 C20.33 0.67 20.66 0.34 21 0 C24.17039196 -0.44033222 25.7722773 -0.11928332 28.625 1.375 C31 4 31 4 34 14 C20.47 14 6.94 14 -7 14 C-6.01 13.01 -5.02 12.02 -4 11 C-1.44991756 7.37103653 -0.51132541 4.39739851 0 0 Z " fill="#252122" transform="translate(539,229)"/>
<path d="M0 0 C2.97 0 5.94 0 9 0 C9 10.89 9 21.78 9 33 C6.03 33 3.06 33 0 33 C0 22.11 0 11.22 0 0 Z " fill="#F8F8F8" transform="translate(268,276)"/>
<path d="M0 0 C0 5.28 0 10.56 0 16 C-8.5 18 -8.5 18 -13 18 C-13 12.39 -13 6.78 -13 1 C-8 0 -8 0 0 0 Z " fill="#242021" transform="translate(515,161)"/>
<path d="M0 0 C0.66 0 1.32 0 2 0 C2.54269531 1.09699219 3.08539062 2.19398437 3.64453125 3.32421875 C4.3670797 4.77869939 5.08974196 6.2331235 5.8125 7.6875 C6.16892578 8.40873047 6.52535156 9.12996094 6.89257812 9.87304688 C8.42119935 12.94431338 9.94777677 15.91604913 11.76171875 18.83203125 C13 21 13 21 13 24 C13.99 24.33 14.98 24.66 16 25 C16 25.66 16 26.32 16 27 C16.99 27.33 17.98 27.66 19 28 C20.99396257 30.66083969 23 33.61242325 23 37 C18.545 37.495 18.545 37.495 14 38 C11.99426128 33.68766176 10.53834743 29.45640788 9.25 24.875 C7.41760978 18.67636747 4.68787397 13.41659491 1.390625 7.875 C-0.03586643 4.92584919 -0.30792931 3.22141433 0 0 Z " fill="#2E2B2C" transform="translate(611,66)"/>
<path d="M0 0 C1.47906892 -0.02689216 2.95827483 -0.04634621 4.4375 -0.0625 C5.26121094 -0.07410156 6.08492187 -0.08570313 6.93359375 -0.09765625 C9 0 9 0 10 1 C10.07313567 3.53049402 10.09247527 6.03304837 10.0625 8.5625 C10.05798828 9.27341797 10.05347656 9.98433594 10.04882812 10.71679688 C10.03700864 12.47790013 10.01907263 14.23896036 10 16 C8.54364629 16.22174933 7.08477044 16.42698698 5.625 16.625 C4.40683594 16.79902344 4.40683594 16.79902344 3.1640625 16.9765625 C2.44992188 16.98429687 1.73578125 16.99203125 1 17 C-1 15 -1 15 -1.23046875 12.03125 C-1.21628906 10.8659375 -1.20210938 9.700625 -1.1875 8.5 C-1.17783203 6.75203125 -1.17783203 6.75203125 -1.16796875 4.96875 C-1 2 -1 2 0 0 Z " fill="#262223" transform="translate(127,284)"/>
<path d="M0 0 C1.47906892 -0.02689216 2.95827483 -0.04634621 4.4375 -0.0625 C5.26121094 -0.07410156 6.08492188 -0.08570313 6.93359375 -0.09765625 C9 0 9 0 10 1 C10.07313567 3.53049402 10.09247527 6.03304837 10.0625 8.5625 C10.05798828 9.27341797 10.05347656 9.98433594 10.04882812 10.71679688 C10.03700864 12.47790013 10.01907263 14.23896036 10 16 C8.54364629 16.22174933 7.08477044 16.42698698 5.625 16.625 C4.40683594 16.79902344 4.40683594 16.79902344 3.1640625 16.9765625 C2.44992188 16.98429687 1.73578125 16.99203125 1 17 C-1 15 -1 15 -1.23046875 12.03125 C-1.21628906 10.8659375 -1.20210938 9.700625 -1.1875 8.5 C-1.17783203 6.75203125 -1.17783203 6.75203125 -1.16796875 4.96875 C-1 2 -1 2 0 0 Z " fill="#262223" transform="translate(94,284)"/>
<path d="M0 0 C1.91015625 0.23046875 1.91015625 0.23046875 3.91015625 2.23046875 C4.2109375 5.19921875 4.2109375 5.19921875 4.22265625 8.73046875 C4.23941406 9.89578125 4.25617188 11.06109375 4.2734375 12.26171875 C4.15355469 13.24140625 4.03367187 14.22109375 3.91015625 15.23046875 C0.45769801 17.53210757 -1.03723088 17.57537197 -5.08984375 17.23046875 C-7.08984375 15.23046875 -7.08984375 15.23046875 -7.3203125 12.0078125 C-7.29904297 10.10708984 -7.29904297 10.10708984 -7.27734375 8.16796875 C-7.27089844 6.89824219 -7.26445312 5.62851562 -7.2578125 4.3203125 C-6.9673919 -1.02207569 -4.86297298 0.09708295 0 0 Z " fill="#252122" transform="translate(397.08984375,283.76953125)"/>
<path d="M0 0 C6.93359375 -0.09765625 6.93359375 -0.09765625 9 0 C10 1 10 1 10.1328125 4.125 C10.13023437 5.40375 10.12765625 6.6825 10.125 8 C10.12757813 9.27875 10.13015625 10.5575 10.1328125 11.875 C10 15 10 15 9 16 C5.99668982 16.14193337 3.00782866 16.04236378 0 16 C0 10.72 0 5.44 0 0 Z " fill="#231F20" transform="translate(160,284)"/>
<path d="M0 0 C1.21611375 2.43222751 0.9454896 3.35065659 0.51171875 6 C0.3832959 6.80066895 0.25487305 7.60133789 0.12255859 8.42626953 C-0.02101074 9.27560059 -0.16458008 10.12493164 -0.3125 11 C-0.45349121 11.85835449 -0.59448242 12.71670898 -0.73974609 13.60107422 C-3.55528089 30.55528089 -3.55528089 30.55528089 -5 32 C-5.28662719 33.80173704 -5.51530843 35.61276634 -5.71875 37.42578125 C-5.91017578 39.08577148 -5.91017578 39.08577148 -6.10546875 40.77929688 C-6.23566406 41.94525391 -6.36585938 43.11121094 -6.5 44.3125 C-6.75805784 46.60052769 -7.01838229 48.88830117 -7.28125 51.17578125 C-7.39533203 52.19583252 -7.50941406 53.21588379 -7.62695312 54.2668457 C-7.94291261 56.58174523 -8.37481247 58.75247766 -9 61 C-9.66 61 -10.32 61 -11 61 C-11.33 62.32 -11.66 63.64 -12 65 C-12.49780334 56.54225985 -10.96532574 48.80367516 -9.1875 40.5625 C-7.17488773 31.00050212 -5.26603429 21.45837775 -4.02612305 11.76000977 C-3.41027437 7.32579481 -2.20787248 3.89266773 0 0 Z " fill="#282526" transform="translate(548,118)"/>
<path d="M0 0 C0.89072636 3.93594467 1.06313204 7.08421049 0 11 C-3.54755501 15.45039622 -8.39470281 18.72947988 -13 22 C-13 18.89448334 -12.4606285 17.64738916 -11 15 C-12.65 16.32 -14.3 17.64 -16 19 C-16.66 18.67 -17.32 18.34 -18 18 C-16.10548397 15.93627679 -14.20943437 13.87399843 -12.3125 11.8125 C-11.78205078 11.23435547 -11.25160156 10.65621094 -10.70507812 10.06054688 C-1.44028072 0 -1.44028072 0 0 0 Z " fill="#2F2C2D" transform="translate(589,41)"/>
<path d="M0 0 C0.66 0 1.32 0 2 0 C1.05566347 4.89737316 -1.51647494 8.49319972 -5 12 C-8.6875 13.375 -8.6875 13.375 -12 14 C-12.99 14.66 -13.98 15.32 -15 16 C-12.1135599 9.64414421 -7.27043211 4.13521606 -1 1 C-0.67 0.67 -0.34 0.34 0 0 Z " fill="#BCBDBE" transform="translate(576,56)"/>
<path d="M0 0 C6.15234375 -0.09765625 6.15234375 -0.09765625 8 0 C9 1 9 1 9.0625 4.5625 C9.041875 5.696875 9.02125 6.83125 9 8 C6.03 8 3.06 8 0 8 C0 5.36 0 2.72 0 0 Z " fill="#231F21" transform="translate(457,284)"/>
<path d="M0 0 C4.53572991 1.95861064 7.33137702 3.79178684 10 8 C10 9.32 10 10.64 10 12 C5.61360019 11.49869716 3.00914894 10.26707599 0 7 C-0.3125 3.25 -0.3125 3.25 0 0 Z " fill="#383637" transform="translate(641,109)"/>
<path d="M0 0 C5.98551772 1.50170462 11.61255621 2.94226163 17 6 C17 6.99 17 7.98 17 9 C7.0974212 8.37434687 7.0974212 8.37434687 3 5 C1.1875 2.3125 1.1875 2.3125 0 0 Z " fill="#2F2C2D" transform="translate(496,103)"/>
<path d="M0 0 C3.94727588 -0.17942163 6.5980513 -0.09350689 10 2 C9.67 3.65 9.34 5.3 9 7 C7.35 7.33 5.7 7.66 4 8 C2.68 5.36 1.36 2.72 0 0 Z " fill="#2F2B2D" transform="translate(627,114)"/>
<path d="M0 0 C0.66 0 1.32 0 2 0 C1.85816304 1.75032844 1.71136571 3.50025534 1.5625 5.25 C1.48128906 6.22453125 1.40007813 7.1990625 1.31640625 8.203125 C1.04925416 10.56461753 0.64628032 12.71901065 0 15 C-0.66 15 -1.32 15 -2 15 C-2.33 16.32 -2.66 17.64 -3 19 C-3.23577013 12.60800977 -2.89437402 7.12885711 -1 1 C-0.67 0.67 -0.34 0.34 0 0 Z " fill="#3F3D3E" transform="translate(539,164)"/>
<path d="M0 0 C1.25657078 2.51314157 0.89935929 3.60384425 0.44140625 6.3515625 C0.30283203 7.20234375 0.16425781 8.053125 0.02148438 8.9296875 C-0.12998047 9.81914063 -0.28144531 10.70859375 -0.4375 11.625 C-0.58509766 12.5221875 -0.73269531 13.419375 -0.88476562 14.34375 C-1.2507907 16.56351497 -1.62276392 18.78211744 -2 21 C-2.99 21 -3.98 21 -5 21 C-3.39767198 6.31199313 -3.39767198 6.31199313 0 0 Z " fill="#333132" transform="translate(548,118)"/>
<path d="M0 0 C5.56097561 2.34146341 5.56097561 2.34146341 8 6 C7.67 6.99 7.34 7.98 7 9 C6.01 8.67 5.02 8.34 4 8 C4.66 8 5.32 8 6 8 C6 7.01 6 6.02 6 5 C0.62796714 3.09502381 -4.6378556 1.55039091 -10.25 0.52734375 C-10.8275 0.35332031 -11.405 0.17929688 -12 0 C-12.33 -0.66 -12.66 -1.32 -13 -2 C-9.0695673 -3.96521635 -3.99928317 -1.28608824 0 0 Z " fill="#D4D5D6" transform="translate(507,104)"/>
<path d="M0 0 C2.97 0 5.94 0 9 0 C8.67 1.65 8.34 3.3 8 5 C5.36 5 2.72 5 0 5 C0 3.35 0 1.7 0 0 Z " fill="#231F20" transform="translate(359,296)"/>
<path d="M0 0 C2.97 0 5.94 0 9 0 C8.67 1.65 8.34 3.3 8 5 C5.36 5 2.72 5 0 5 C0 3.35 0 1.7 0 0 Z " fill="#282526" transform="translate(359,284)"/>
<path d="M0 0 C0.33 0 0.66 0 1 0 C1 7.59 1 15.18 1 23 C0.67 23 0.34 23 0 23 C0 18.05 0 13.1 0 8 C-4.29 7.67 -8.58 7.34 -13 7 C-13 6.67 -13 6.34 -13 6 C-6.565 5.505 -6.565 5.505 0 5 C0 3.35 0 1.7 0 0 Z " fill="#C2C3C5" transform="translate(515,153)"/>
<path d="M0 0 C2.00293347 3.00440021 2.49271626 4.70993945 3.125 8.1875 C3.29257812 9.08855469 3.46015625 9.98960938 3.6328125 10.91796875 C3.75398437 11.60503906 3.87515625 12.29210937 4 13 C3.01 13.495 3.01 13.495 2 14 C1.27517252 12.23585377 0.57060704 10.46337096 -0.125 8.6875 C-0.51945313 7.70136719 -0.91390625 6.71523437 -1.3203125 5.69921875 C-1.54460938 4.80847656 -1.76890625 3.91773437 -2 3 C-1.34 2.01 -0.68 1.02 0 0 Z " fill="#E3E4E5" transform="translate(620,89)"/>
<path d="M0 0 C0.33 0.66 0.66 1.32 1 2 C0.0625 4.125 0.0625 4.125 -1 6 C-0.34 6 0.32 6 1 6 C0.34 9.63 -0.32 13.26 -1 17 C-1.33 17 -1.66 17 -2 17 C-3.70159453 5.47835991 -3.70159453 5.47835991 0 0 Z " fill="#A7A7A9" transform="translate(521,156)"/>
<path d="M0 0 C1.485 0.99 1.485 0.99 3 2 C2.01 5.96 1.02 9.92 0 14 C-0.33 14 -0.66 14 -1 14 C-1.02705729 12.22925083 -1.04642195 10.45838289 -1.0625 8.6875 C-1.07410156 7.70136719 -1.08570313 6.71523437 -1.09765625 5.69921875 C-1 3 -1 3 0 0 Z " fill="#DADBDC" transform="translate(528,107)"/>
<path d="M0 0 C0.99 0.66 1.98 1.32 3 2 C1.68 4.64 0.36 7.28 -1 10 C-1.66 8.68 -2.32 7.36 -3 6 C-1.625 2.75 -1.625 2.75 0 0 Z " fill="#A6A7A8" transform="translate(524,146)"/>
<path d="M0 0 C1.26026798 2.52053595 0.91874445 3.8542098 0.5625 6.625 C0.40974609 7.85089844 0.40974609 7.85089844 0.25390625 9.1015625 C0.17011719 9.72804688 0.08632813 10.35453125 0 11 C-0.99 10.67 -1.98 10.34 -3 10 C-2.49287967 6.28111761 -1.88391785 3.26545761 0 0 Z " fill="#514F51" transform="translate(548,118)"/>
</svg>
